<svg xmlns="http://www.w3.org/2000/svg" viewBox="0 0 1000 600">
  <!-- Background gradient -->
  <defs>
    <linearGradient id="bgGradient" x1="0%" y1="0%" x2="0%" y2="100%">
      <stop offset="0%" stop-color="#1a2980" />
      <stop offset="100%" stop-color="#26d0ce" />
    </linearGradient>
    <linearGradient id="skyGradient" x1="0%" y1="0%" x2="0%" y2="100%">
      <stop offset="0%" stop-color="#70c5ce" />
      <stop offset="100%" stop-color="#4a90e2" />
    </linearGradient>
    <linearGradient id="groundGradient" x1="0%" y1="0%" x2="0%" y2="100%">
      <stop offset="0%" stop-color="#ded895" />
      <stop offset="100%" stop-color="#c9b15f" />
    </linearGradient>
    <linearGradient id="pipeGradient" x1="0%" y1="0%" x2="100%" y2="0%">
      <stop offset="0%" stop-color="#588d3f" />
      <stop offset="50%" stop-color="#73bf2e" />
      <stop offset="100%" stop-color="#588d3f" />
    </linearGradient>
    <linearGradient id="buttonGradient" x1="0%" y1="0%" x2="0%" y2="100%">
      <stop offset="0%" stop-color="#ffdb58" />
      <stop offset="100%" stop-color="#ffa500" />
    </linearGradient>
    <filter id="shadow" x="-20%" y="-20%" width="140%" height="140%">
      <feGaussianBlur in="SourceAlpha" stdDeviation="10" />
      <feOffset dx="0" dy="10" result="offsetblur" />
      <feComponentTransfer>
        <feFuncA type="linear" slope="0.5" />
      </feComponentTransfer>
      <feMerge>
        <feMergeNode />
        <feMergeNode in="SourceGraphic" />
      </feMerge>
    </filter>
    <filter id="glow" x="-50%" y="-50%" width="200%" height="200%">
      <feGaussianBlur in="SourceGraphic" stdDeviation="5" />
      <feComponentTransfer>
        <feFuncA type="linear" slope="0.5" />
      </feComponentTransfer>
      <feMerge>
        <feMergeNode />
        <feMergeNode in="SourceGraphic" />
      </feMerge>
    </filter>
  </defs>

  <!-- Main background -->
  <rect width="1000" height="600" fill="url(#bgGradient)" />
  
  <!-- Title at the top -->
  <text x="500" y="40" font-family="'Press Start 2P', Arial, sans-serif" font-size="28" fill="#ffdb58" text-anchor="middle" filter="url(#glow)">FLAPPY BIRD GAME</text>
  
  <!-- Game window -->
  <g transform="translate(50, 80)">
    <!-- Game window frame - wider rectangle -->
    <rect x="0" y="0" width="500" height="400" rx="10" ry="10" fill="url(#skyGradient)" stroke="#543847" stroke-width="8" filter="url(#shadow)" />
    
    <!-- Mountains -->
    <path d="M0 280 L150 160 L300 280 L450 180 L500 280" fill="#8B4513" fill-opacity="0.3" />
    <path d="M80 280 L220 144 L360 280 L440 200 L500 280" fill="#654321" fill-opacity="0.3" />
    
    <!-- Ground -->
    <rect x="0" y="280" width="500" height="120" fill="url(#groundGradient)" stroke="#543847" stroke-width="5" stroke-location="inside" />
    
    <!-- Multiple Pipes -->
    <g>
      <!-- First set of pipes -->
      <rect x="150" y="220" width="60" height="60" fill="url(#pipeGradient)" stroke="#543847" stroke-width="4" />
      <rect x="145" y="220" width="70" height="15" rx="5" ry="5" fill="#73bf2e" stroke="#543847" stroke-width="4" />
      
      <rect x="150" y="0" width="60" height="120" fill="url(#pipeGradient)" stroke="#543847" stroke-width="4" />
      <rect x="145" y="120" width="70" height="15" rx="5" ry="5" fill="#73bf2e" stroke="#543847" stroke-width="4" />
      
      <!-- Second set of pipes -->
      <rect x="300" y="240" width="60" height="40" fill="url(#pipeGradient)" stroke="#543847" stroke-width="4" />
      <rect x="295" y="240" width="70" height="15" rx="5" ry="5" fill="#73bf2e" stroke="#543847" stroke-width="4" />
      
      <rect x="300" y="0" width="60" height="140" fill="url(#pipeGradient)" stroke="#543847" stroke-width="4" />
      <rect x="295" y="140" width="70" height="15" rx="5" ry="5" fill="#73bf2e" stroke="#543847" stroke-width="4" />
      
      <!-- Third set of pipes (partial, coming from right) -->
      <rect x="450" y="200" width="60" height="80" fill="url(#pipeGradient)" stroke="#543847" stroke-width="4" />
      <rect x="445" y="200" width="70" height="15" rx="5" ry="5" fill="#73bf2e" stroke="#543847" stroke-width="4" />
    </g>
    
    <!-- Bird -->
    <g transform="translate(100, 200)" filter="url(#glow)">
      <ellipse cx="0" cy="0" rx="25" ry="17.5" fill="#ffdb58" stroke="#543847" stroke-width="2" />
      <circle cx="12" cy="-4" r="6" fill="white" stroke="#333" stroke-width="2" />
      <circle cx="12" cy="-4" r="2" fill="#333" />
      <path d="M20 0 C30 0, 30 5, 20 5" fill="#ff6b6b" />
      
      <!-- Wing animation -->
      <ellipse cx="-10" cy="5" rx="10" ry="7.5" fill="#ffc425" stroke="#543847" stroke-width="1">
        <animateTransform attributeName="transform" type="rotate" values="0 -5 0; 20 -5 0; 0 -5 0" dur="0.4s" repeatCount="indefinite" />
      </ellipse>
    </g>
    
    <!-- Power-up -->
    <circle cx="240" cy="160" r="15" fill="#4a90e2" stroke="white" stroke-width="2" filter="url(#glow)">
      <animate attributeName="cy" values="160; 155; 160" dur="1s" repeatCount="indefinite" />
    </circle>
    
    <!-- Score display -->
    <text x="250" y="50" font-family="'Press Start 2P', monospace" font-size="36" text-anchor="middle" fill="white" stroke="black" stroke-width="2">42</text>
    
    <!-- HUD elements -->
    <circle cx="30" cy="30" r="20" fill="#4a90e2" fill-opacity="0.3" stroke="#4a90e2" stroke-width="3" />
    <circle cx="470" cy="30" r="20" fill="#2ecc71" fill-opacity="0.3" stroke="#2ecc71" stroke-width="3" />
  </g>
  
  <!-- Code panel -->
  <g transform="translate(600, 80)">
    <rect x="0" y="0" width="350" height="400" rx="5" ry="5" fill="#282c34" stroke="#444" stroke-width="2" />
    
    <!-- Code snippets -->
    <text font-family="monospace" font-size="14" fill="#abb2bf" x="15" y="30">function updateGame() {</text>
    <text font-family="monospace" font-size="14" fill="#abb2bf" x="30" y="55">velocity += gravity;</text>
    <text font-family="monospace" font-size="14" fill="#abb2bf" x="30" y="80">birdTop += velocity;</text>
    <text font-family="monospace" font-size="14" fill="#e06c75" x="30" y="105">bird.style.top = birdTop + 'px';</text>
    <text font-family="monospace" font-size="14" fill="#abb2bf" x="30" y="130">if (checkCollision()) {</text>
    <text font-family="monospace" font-size="14" fill="#61afef" x="45" y="155">gameOver();</text>
    <text font-family="monospace" font-size="14" fill="#abb2bf" x="30" y="180">}</text>
    <text font-family="monospace" font-size="14" fill="#abb2bf" x="15" y="205">}</text>
    
    <text font-family="monospace" font-size="14" fill="#abb2bf" x="15" y="240">function flap() {</text>
    <text font-family="monospace" font-size="14" fill="#e06c75" x="30" y="265">velocity = -8;</text>
    <text font-family="monospace" font-size="14" fill="#abb2bf" x="15" y="290">}</text>
    
    <text font-family="monospace" font-size="14" fill="#abb2bf" x="175" y="30">// Features</text>
    <text font-family="monospace" font-size="14" fill="#98c379" x="175" y="55">• Responsive controls</text>
    <text font-family="monospace" font-size="14" fill="#98c379" x="175" y="80">• Power-up system</text>
    <text font-family="monospace" font-size="14" fill="#98c379" x="175" y="105">• Difficulty settings</text>
    <text font-family="monospace" font-size="14" fill="#98c379" x="175" y="130">• Animated graphics</text>
    <text font-family="monospace" font-size="14" fill="#98c379" x="175" y="155">• Score tracking</text>
    <text font-family="monospace" font-size="14" fill="#98c379" x="175" y="180">• Sound effects</text>
    <text font-family="monospace" font-size="14" fill="#98c379" x="175" y="205">• Multiple level designs</text>
    <text font-family="monospace" font-size="14" fill="#98c379" x="175" y="230">• Achievement system</text>
  </g>
  
  <!-- Control buttons -->
  <g transform="translate(275, 520)">
    <rect x="0" y="0" width="150" height="40" rx="20" ry="20" fill="url(#buttonGradient)" stroke="#543847" stroke-width="3" />
    <text x="75" y="25" font-family="'Press Start 2P', Arial, sans-serif" font-size="16" fill="#543847" text-anchor="middle">PLAY</text>
  </g>
  
  <g transform="translate(475, 520)">
    <rect x="0" y="0" width="150" height="40" rx="20" ry="20" fill="#4a4a4a" stroke="#333" stroke-width="2" />
    <text x="75" y="25" font-family="'Press Start 2P', Arial, sans-serif" font-size="16" fill="white" text-anchor="middle">VIEW CODE</text>
  </g>
  
  <g transform="translate(675, 520)">
    <rect x="0" y="0" width="150" height="40" rx="20" ry="20" fill="#4a4a4a" stroke="#333" stroke-width="2" />
    <text x="75" y="25" font-family="'Press Start 2P', Arial, sans-serif" font-size="16" fill="white" text-anchor="middle">SETTINGS</text>
  </g>
  
  <!-- Interactive elements hint -->
  <g transform="translate(500, 580)">
    <text x="0" y="0" font-family="Arial, sans-serif" font-size="14" fill="white" text-anchor="middle">Interactive HTML5 Canvas Game with Pure JavaScript</text>
  </g>
</svg>
