<svg xmlns="http://www.w3.org/2000/svg" viewBox="0 0 1200 600">
  <!-- Definitions -->
  <defs>
    <!-- Gradients -->
    <linearGradient id="skyGradient" x1="0%" y1="0%" x2="0%" y2="100%">
      <stop offset="0%" stop-color="#1a237e" />
      <stop offset="100%" stop-color="#283593" />
    </linearGradient>
    <linearGradient id="roadGradient" x1="0%" y1="0%" x2="0%" y2="100%">
      <stop offset="0%" stop-color="#424242" />
      <stop offset="100%" stop-color="#212121" />
    </linearGradient>
    <linearGradient id="dashboardGradient" x1="0%" y1="0%" x2="0%" y2="100%">
      <stop offset="0%" stop-color="#263238" />
      <stop offset="100%" stop-color="#37474f" />
    </linearGradient>
    <linearGradient id="chartGradient" x1="0%" y1="0%" x2="0%" y2="100%">
      <stop offset="0%" stop-color="#4fc3f7" stop-opacity="0.8" />
      <stop offset="100%" stop-color="#03a9f4" stop-opacity="0.3" />
    </linearGradient>
    <linearGradient id="serverGradient" x1="0%" y1="0%" x2="0%" y2="100%">
      <stop offset="0%" stop-color="#607d8b" />
      <stop offset="100%" stop-color="#455a64" />
    </linearGradient>
    
    <!-- Filters -->
    <filter id="glow" x="-20%" y="-20%" width="140%" height="140%">
      <feGaussianBlur stdDeviation="5" result="blur" />
      <feComposite in="SourceGraphic" in2="blur" operator="over" />
    </filter>
    <filter id="shadow" x="-10%" y="-10%" width="120%" height="120%">
      <feDropShadow dx="2" dy="2" stdDeviation="3" flood-color="#000" flood-opacity="0.3" />
    </filter>
    
    <!-- Patterns -->
    <pattern id="gridPattern" width="20" height="20" patternUnits="userSpaceOnUse">
      <rect width="20" height="20" fill="#263238" />
      <path d="M 20 0 L 0 0 0 20" fill="none" stroke="#37474f" stroke-width="1" />
    </pattern>
  </defs>
  
  <!-- Main Background -->
  <rect width="1200" height="600" fill="url(#skyGradient)" />
  
  <!-- Title -->
  <text x="600" y="45" font-family="Arial, sans-serif" font-size="28" font-weight="bold" fill="white" text-anchor="middle" filter="url(#shadow)">
    Real-Time Traffic Flow Analysis System using AI and Computer Vision
  </text>
  
  <!-- City Skyline Silhouette -->
  <path d="M0,280 L60,280 L60,240 L80,240 L80,260 L100,260 L100,230 L120,230 L120,250 L140,250 L140,200 
           L160,200 L160,240 L180,240 L180,210 L200,210 L200,230 L220,230 L220,180 L240,180 L240,230 
           L260,230 L260,250 L280,250 L280,220 L300,220 L300,240 L320,240 L320,200 L340,200 L340,250 
           L360,250 L360,230 L380,230 L380,190 L400,190 L400,250 L420,250 L420,210 L440,210 L440,240 
           L460,240 L460,200 L480,200 L480,240 L500,240 L500,180 L520,180 L520,230 L540,230 L540,250 
           L560,250 L560,220 L580,220 L580,170 L600,170 L600,240 L620,240 L620,200 L640,200 L640,250 
           L660,250 L660,220 L680,220 L680,180 L700,180 L700,200 L720,200 L720,160 L740,160 L740,220 
           L760,220 L760,240 L780,240 L780,200 L800,200 L800,230 L820,230 L820,190 L840,190 L840,250 
           L860,250 L860,210 L880,210 L880,240 L900,240 L900,200 L920,200 L920,230 L940,230 L940,250 
           L960,250 L960,220 L980,220 L980,240 L1000,240 L1000,200 L1020,200 L1020,240 L1040,240 L1040,220 
           L1060,220 L1060,190 L1080,190 L1080,230 L1100,230 L1100,210 L1120,210 L1120,240 L1140,240 L1140,200 
           L1160,200 L1160,240 L1180,240 L1180,280 L1200,280 L1200,280 L1200,600 L0,600 Z" 
        fill="#1a237e" opacity="0.7" />
        
  <!-- Main Highway -->
  <rect x="0" y="280" width="1200" height="160" fill="url(#roadGradient)" />
  
  <!-- Road Lane Markings -->
  <g stroke="white" stroke-width="4" stroke-dasharray="30 20">
    <line x1="0" y1="320" x2="1200" y2="320" />
    <line x1="0" y1="360" x2="1200" y2="360" />
    <line x1="0" y1="400" x2="1200" y2="400" />
  </g>
  
  <!-- Solid Lane Edge Markings -->
  <line x1="0" y1="280" x2="1200" y2="280" stroke="yellow" stroke-width="4" />
  <line x1="0" y1="440" x2="1200" y2="440" stroke="yellow" stroke-width="4" />
  
  <!-- Traffic Cameras -->
  <g transform="translate(200, 240)">
    <rect x="-10" y="-5" width="20" height="25" fill="#607d8b" stroke="#455a64" stroke-width="2" />
    <circle cx="0" cy="0" r="8" fill="#03a9f4" stroke="#0288d1" stroke-width="2" />
    <circle cx="0" cy="0" r="3" fill="#01579b" />
    <path d="M0,20 L0,40" stroke="#455a64" stroke-width="3" />
    
    <!-- Camera Field of Vision -->
    <path d="M0,0 L-80,140 L80,140 Z" fill="#03a9f4" opacity="0.1" />
    
    <!-- Detection Animation -->
    <circle cx="0" cy="0" r="15" fill="none" stroke="#4fc3f7" stroke-width="2">
      <animate attributeName="r" values="8;20;8" dur="3s" repeatCount="indefinite" />
      <animate attributeName="opacity" values="0.8;0;0.8" dur="3s" repeatCount="indefinite" />
    </circle>
  </g>
  
  <g transform="translate(600, 210)">
    <rect x="-10" y="-5" width="20" height="25" fill="#607d8b" stroke="#455a64" stroke-width="2" />
    <circle cx="0" cy="0" r="8" fill="#03a9f4" stroke="#0288d1" stroke-width="2" />
    <circle cx="0" cy="0" r="3" fill="#01579b" />
    <path d="M0,20 L0,70" stroke="#455a64" stroke-width="3" />
    
    <!-- Camera Field of Vision -->
    <path d="M0,0 L-100,170 L100,170 Z" fill="#03a9f4" opacity="0.1" />
    
    <!-- Detection Animation -->
    <circle cx="0" cy="0" r="15" fill="none" stroke="#4fc3f7" stroke-width="2">
      <animate attributeName="r" values="8;20;8" dur="3.5s" repeatCount="indefinite" />
      <animate attributeName="opacity" values="0.8;0;0.8" dur="3.5s" repeatCount="indefinite" />
    </circle>
  </g>
  
  <g transform="translate(1000, 240)">
    <rect x="-10" y="-5" width="20" height="25" fill="#607d8b" stroke="#455a64" stroke-width="2" />
    <circle cx="0" cy="0" r="8" fill="#03a9f4" stroke="#0288d1" stroke-width="2" />
    <circle cx="0" cy="0" r="3" fill="#01579b" />
    <path d="M0,20 L0,40" stroke="#455a64" stroke-width="3" />
    
    <!-- Camera Field of Vision -->
    <path d="M0,0 L-80,140 L80,140 Z" fill="#03a9f4" opacity="0.1" />
    
    <!-- Detection Animation -->
    <circle cx="0" cy="0" r="15" fill="none" stroke="#4fc3f7" stroke-width="2">
      <animate attributeName="r" values="8;20;8" dur="4s" repeatCount="indefinite" />
      <animate attributeName="opacity" values="0.8;0;0.8" dur="4s" repeatCount="indefinite" />
    </circle>
  </g>
  
  <!-- Vehicles -->
  <!-- Car 1 -->
  <g transform="translate(150, 340)">
    <rect x="-25" y="-10" width="50" height="20" rx="5" ry="5" fill="#f44336" filter="url(#shadow)" />
    <rect x="-20" y="-15" width="40" height="10" rx="3" ry="3" fill="#e57373" />
    <circle cx="-15" cy="10" r="5" fill="#212121" />
    <circle cx="15" cy="10" r="5" fill="#212121" />
    
    <!-- Car movement animation -->
    <animateTransform attributeName="transform" type="translate" from="-50,340" to="1250,340" dur="10s" repeatCount="indefinite" />
    
    <!-- AI Bounding Box -->
    <rect x="-30" y="-20" width="60" height="40" fill="none" stroke="#76ff03" stroke-width="1.5" stroke-dasharray="5,3">
      <animate attributeName="opacity" values="0.1;0.8;0.1" dur="2s" repeatCount="indefinite" />
    </rect>
  </g>
  
  <!-- Car 2 -->
  <g transform="translate(300, 380)">
    <rect x="-30" y="-10" width="60" height="20" rx="5" ry="5" fill="#2196f3" filter="url(#shadow)" />
    <rect x="-22" y="-15" width="44" height="10" rx="3" ry="3" fill="#64b5f6" />
    <circle cx="-18" cy="10" r="5" fill="#212121" />
    <circle cx="18" cy="10" r="5" fill="#212121" />
    
    <!-- Car movement animation -->
    <animateTransform attributeName="transform" type="translate" from="-100,380" to="1250,380" dur="12s" repeatCount="indefinite" />
    
    <!-- AI Bounding Box -->
    <rect x="-35" y="-20" width="70" height="40" fill="none" stroke="#76ff03" stroke-width="1.5" stroke-dasharray="5,3">
      <animate attributeName="opacity" values="0.1;0.8;0.1" dur="2s" repeatCount="indefinite" />
    </rect>
  </g>
  
  <!-- Car 3 -->
  <g transform="translate(500, 300)">
    <rect x="-25" y="-10" width="50" height="20" rx="5" ry="5" fill="#9c27b0" filter="url(#shadow)" />
    <rect x="-20" y="-15" width="40" height="10" rx="3" ry="3" fill="#ba68c8" />
    <circle cx="-15" cy="10" r="5" fill="#212121" />
    <circle cx="15" cy="10" r="5" fill="#212121" />
    
    <!-- Car movement animation -->
    <animateTransform attributeName="transform" type="translate" from="-150,300" to="1250,300" dur="8s" repeatCount="indefinite" />
    
    <!-- AI Bounding Box -->
    <rect x="-30" y="-20" width="60" height="40" fill="none" stroke="#76ff03" stroke-width="1.5" stroke-dasharray="5,3">
      <animate attributeName="opacity" values="0.1;0.8;0.1" dur="2s" repeatCount="indefinite" />
    </rect>
  </g>
  
  <!-- Truck -->
  <g transform="translate(800, 420)">
    <rect x="-40" y="-15" width="80" height="25" rx="5" ry="5" fill="#ff9800" filter="url(#shadow)" />
    <rect x="-35" y="-25" width="30" height="15" rx="3" ry="3" fill="#ffb74d" />
    <circle cx="-25" cy="10" r="7" fill="#212121" />
    <circle cx="0" cy="10" r="7" fill="#212121" />
    <circle cx="25" cy="10" r="7" fill="#212121" />
    
    <!-- Truck movement animation (slower) -->
    <animateTransform attributeName="transform" type="translate" from="-200,420" to="1250,420" dur="15s" repeatCount="indefinite" />
    
    <!-- AI Bounding Box -->
    <rect x="-45" y="-30" width="90" height="50" fill="none" stroke="#76ff03" stroke-width="1.5" stroke-dasharray="5,3">
      <animate attributeName="opacity" values="0.1;0.8;0.1" dur="2s" repeatCount="indefinite" />
    </rect>
  </g>
  
  <!-- Dashboard Area -->
  <rect x="50" y="460" width="1100" height="120" rx="10" ry="10" fill="url(#dashboardGradient)" filter="url(#shadow)" />
  
  <!-- Dashboard Title -->
  <text x="600" y="485" font-family="Arial, sans-serif" font-size="18" fill="white" text-anchor="middle">Traffic Analysis Dashboard</text>
  
  <!-- Traffic Flow Chart -->
  <g transform="translate(150, 530)">
    <rect x="-80" y="-40" width="160" height="80" fill="#37474f" stroke="#546e7a" stroke-width="1" rx="5" ry="5" />
    <text x="0" y="-25" font-family="Arial, sans-serif" font-size="12" fill="white" text-anchor="middle">Traffic Volume</text>
    
    <!-- Chart Bars -->
    <rect x="-70" y="30" width="10" height="-30" fill="#4fc3f7" />
    <rect x="-55" y="30" width="10" height="-50" fill="#4fc3f7" />
    <rect x="-40" y="30" width="10" height="-35" fill="#4fc3f7" />
    <rect x="-25" y="30" width="10" height="-45" fill="#4fc3f7" />
    <rect x="-10" y="30" width="10" height="-60" fill="#4fc3f7" />
    <rect x="5" y="30" width="10" height="-40" fill="#4fc3f7" />
    <rect x="20" y="30" width="10" height="-30" fill="#4fc3f7" />
    <rect x="35" y="30" width="10" height="-50" fill="#4fc3f7" />
    <rect x="50" y="30" width="10" height="-45" fill="#4fc3f7" />
    <rect x="65" y="30" width="10" height="-30" fill="#4fc3f7" />
    
    <!-- Animated Current Data Point -->
    <rect x="65" y="30" width="10" height="-30" fill="#69f0ae">
      <animate attributeName="height" values="-30;-35;-30" dur="2s" repeatCount="indefinite" />
    </rect>
  </g>
  
  <!-- Speed Analysis Chart -->
  <g transform="translate(350, 530)">
    <rect x="-80" y="-40" width="160" height="80" fill="#37474f" stroke="#546e7a" stroke-width="1" rx="5" ry="5" />
    <text x="0" y="-25" font-family="Arial, sans-serif" font-size="12" fill="white" text-anchor="middle">Average Speed (mph)</text>
    
    <!-- Line Chart -->
    <polyline points="-70,-10 -50,0 -30,-5 -10,-20 10,-15 30,-5 50,-10 70,-5" fill="none" stroke="#4caf50" stroke-width="2" />
    <circle cx="-70" cy="-10" r="3" fill="#4caf50" />
    <circle cx="-50" cy="0" r="3" fill="#4caf50" />
    <circle cx="-30" cy="-5" r="3" fill="#4caf50" />
    <circle cx="-10" cy="-20" r="3" fill="#4caf50" />
    <circle cx="10" cy="-15" r="3" fill="#4caf50" />
    <circle cx="30" cy="-5" r="3" fill="#4caf50" />
    <circle cx="50" cy="-10" r="3" fill="#4caf50" />
    <circle cx="70" cy="-5" r="3" fill="#4caf50" />
    
    <!-- Current Value -->
    <text x="0" y="10" font-family="Arial, sans-serif" font-size="18" fill="#4caf50" text-anchor="middle">54.8</text>
  </g>
  
  <!-- Congestion Map -->
  <g transform="translate(550, 530)">
    <rect x="-80" y="-40" width="160" height="80" fill="#37474f" stroke="#546e7a" stroke-width="1" rx="5" ry="5" />
    <text x="0" y="-25" font-family="Arial, sans-serif" font-size="12" fill="white" text-anchor="middle">Congestion Map</text>
    
    <!-- Simplified Road Map -->
    <line x1="-70" y1="0" x2="70" y2="0" stroke="#90a4ae" stroke-width="8" />
    <line x1="-30" y1="-30" x2="-30" y2="30" stroke="#90a4ae" stroke-width="4" />
    <line x1="30" y1="-30" x2="30" y2="30" stroke="#90a4ae" stroke-width="4" />
    
    <!-- Congestion Indicators -->
    <rect x="-70" y="-4" width="35" height="8" fill="#f44336" opacity="0.8" /> <!-- High congestion -->
    <rect x="-35" y="-4" width="40" height="8" fill="#ffc107" opacity="0.8" /> <!-- Medium congestion -->
    <rect x="5" y="-4" width="65" height="8" fill="#4caf50" opacity="0.8" /> <!-- Low congestion -->
    
    <!-- Pulsing Alert -->
    <circle cx="-50" cy="0" r="5" fill="#f44336">
      <animate attributeName="r" values="5;8;5" dur="1s" repeatCount="indefinite" />
      <animate attributeName="opacity" values="1;0.5;1" dur="1s" repeatCount="indefinite" />
    </circle>
  </g>
  
  <!-- AI Analysis Panel -->
  <g transform="translate(750, 530)">
    <rect x="-80" y="-40" width="160" height="80" fill="#37474f" stroke="#546e7a" stroke-width="1" rx="5" ry="5" />
    <text x="0" y="-25" font-family="Arial, sans-serif" font-size="12" fill="white" text-anchor="middle">AI Detection Events</text>
    
    <!-- Detection Stats -->
    <text x="-70" y="-5" font-family="Arial, sans-serif" font-size="10" fill="white" text-anchor="start">Cars:</text>
    <text x="50" y="-5" font-family="Arial, sans-serif" font-size="10" fill="#4fc3f7" text-anchor="end">42</text>
    
    <text x="-70" y="10" font-family="Arial, sans-serif" font-size="10" fill="white" text-anchor="start">Trucks:</text>
    <text x="50" y="10" font-family="Arial, sans-serif" font-size="10" fill="#4fc3f7" text-anchor="end">7</text>
    
    <text x="-70" y="25" font-family="Arial, sans-serif" font-size="10" fill="white" text-anchor="start">Incidents:</text>
    <text x="50" y="25" font-family="Arial, sans-serif" font-size="10" fill="#f44336" text-anchor="end">1</text>
    
    <!-- Processing Indicator -->
    <circle cx="65" cy="-30" r="4" fill="#69f0ae">
      <animate attributeName="opacity" values="1;0.3;1" dur="1.5s" repeatCount="indefinite" />
    </circle>
  </g>
  
  <!-- System Status -->
  <g transform="translate(950, 530)">
    <rect x="-80" y="-40" width="160" height="80" fill="#37474f" stroke="#546e7a" stroke-width="1" rx="5" ry="5" />
    <text x="0" y="-25" font-family="Arial, sans-serif" font-size="12" fill="white" text-anchor="middle">System Status</text>
    
    <!-- Server Rack Icon -->
    <g transform="translate(-50, 0) scale(0.8)">
      <rect x="-15" y="-20" width="30" height="40" fill="url(#serverGradient)" stroke="#455a64" stroke-width="1" />
      <line x1="-15" y1="-13" x2="15" y2="-13" stroke="#b0bec5" stroke-width="1" />
      <line x1="-15" y1="-6" x2="15" y2="-6" stroke="#b0bec5" stroke-width="1" />
      <line x1="-15" y1="1" x2="15" y2="1" stroke="#b0bec5" stroke-width="1" />
      <line x1="-15" y1="8" x2="15" y2="8" stroke="#b0bec5" stroke-width="1" />
      <line x1="-15" y1="15" x2="15" y2="15" stroke="#b0bec5" stroke-width="1" />
      <circle cx="10" cy="-16" r="2" fill="#69f0ae">
        <animate attributeName="fill" values="#69f0ae;#b0bec5;#69f0ae" dur="3s" repeatCount="indefinite" />
      </circle>
    </g>
    
    <!-- AI Model Icon -->
    <g transform="translate(20, 0)">
      <path d="M-20,-15 L20,-15 L20,15 L-20,15 Z" fill="none" stroke="#b0bec5" stroke-width="1" />
      <path d="M-15,-10 L-5,-10 L-5,0 L-15,0 Z" fill="#4fc3f7" opacity="0.6" />
      <path d="M0,-10 L10,-10 L10,0 L0,0 Z" fill="#4fc3f7" opacity="0.8" />
      <path d="M-15,5 L-5,5 L-5,15 L-15,15 Z" fill="#4fc3f7" opacity="0.7" />
      <path d="M0,5 L10,5 L10,15 L0,15 Z" fill="#4fc3f7" opacity="0.9" />
      <line x1="-5" y1="-5" x2="15" y2="-5" stroke="#4fc3f7" stroke-width="1" stroke-dasharray="2,2" />
      <line x1="-15" y1="10" x2="5" y2="10" stroke="#4fc3f7" stroke-width="1" stroke-dasharray="2,2" />
      <circle cx="15" cy="10" r="3" fill="#4fc3f7">
        <animate attributeName="r" values="3;4;3" dur="2s" repeatCount="indefinite" />
      </circle>
    </g>
    
    <!-- System Status Indicator -->
    <text x="0" y="25" font-family="Arial, sans-serif" font-size="12" fill="#69f0ae" text-anchor="middle">ONLINE</text>
  </g>
  
  <!-- Data Flow Paths -->
  <g stroke="#4fc3f7" stroke-width="2" stroke-dasharray="5,3" opacity="0.6">
    <!-- Camera to Processing -->
    <path d="M200,240 C200,380 350,460 350,460">
      <animate attributeName="stroke-dashoffset" values="30;0" dur="2s" repeatCount="indefinite" />
    </path>
    <path d="M600,210 C600,380 550,460 550,460">
      <animate attributeName="stroke-dashoffset" values="30;0" dur="2s" repeatCount="indefinite" />
    </path>
    <path d="M1000,240 C1000,380 750,460 750,460">
      <animate attributeName="stroke-dashoffset" values="30;0" dur="2s" repeatCount="indefinite" />
    </path>
  </g>
  
  <!-- AI Analysis Visual -->
  <g transform="translate(600, 370)">
    <circle cx="0" cy="0" r="25" fill="#263238" stroke="#4fc3f7" stroke-width="2" opacity="0.7" filter="url(#glow)" />
    <text x="0" y="5" font-family="Arial, sans-serif" font-size="14" fill="#4fc3f7" text-anchor="middle">AI</text>
    
    <!-- Expanding Detection Rings -->
    <circle cx="0" cy="0" r="30" fill="none" stroke="#4fc3f7" stroke-width="1.5">
      <animate attributeName="r" values="25;45;25" dur="3s" repeatCount="indefinite" />
      <animate attributeName="opacity" values="0.7;0;0.7" dur="3s" repeatCount="indefinite" />
    </circle>
    <circle cx="0" cy="0" r="35" fill="none" stroke="#4fc3f7" stroke-width="1">
      <animate attributeName="r" values="30;50;30" dur="3s" repeatCount="indefinite" />
      <animate attributeName="opacity" values="0.5;0;0.5" dur="3s" repeatCount="indefinite" />
    </circle>
  </g>
</svg>
